<mxfile host="Electron" agent="Mozilla/5.0 (Windows NT 10.0; Win64; x64) AppleWebKit/537.36 (KHTML, like Gecko) draw.io/28.2.5 Chrome/138.0.7204.251 Electron/37.6.1 Safari/537.36" version="28.2.5">
  <diagram name="ページ1" id="ukD7YO7jjwt9V9ALAhhA">
    <mxGraphModel dx="5240" dy="3440" grid="1" gridSize="10" guides="1" tooltips="1" connect="1" arrows="1" fold="1" page="1" pageScale="1" pageWidth="827" pageHeight="1169" math="0" shadow="0">
      <root>
        <mxCell id="0" />
        <mxCell id="1" parent="0" />
        <mxCell id="7gxIuWQ1MeZ081-h1M4B-29" value="ゲストユーザが見れる書評ページ" style="text;html=1;align=center;verticalAlign=middle;whiteSpace=wrap;rounded=0;shadow=1;" parent="1" vertex="1">
          <mxGeometry x="920" y="1580" width="124.5" height="30" as="geometry" />
        </mxCell>
        <mxCell id="7gxIuWQ1MeZ081-h1M4B-30" value="" style="rounded=0;whiteSpace=wrap;html=1;movable=1;resizable=1;rotatable=1;deletable=1;editable=1;locked=0;connectable=1;" parent="1" vertex="1">
          <mxGeometry x="260" y="1280" width="1890" height="900" as="geometry" />
        </mxCell>
        <mxCell id="7gxIuWQ1MeZ081-h1M4B-31" style="edgeStyle=orthogonalEdgeStyle;rounded=0;orthogonalLoop=1;jettySize=auto;html=1;fillColor=#f5f5f5;strokeColor=#666666;" parent="1" source="7gxIuWQ1MeZ081-h1M4B-32" edge="1">
          <mxGeometry relative="1" as="geometry">
            <mxPoint x="1400" y="1900" as="targetPoint" />
          </mxGeometry>
        </mxCell>
        <mxCell id="7gxIuWQ1MeZ081-h1M4B-32" value="企画ページ" style="rounded=0;whiteSpace=wrap;html=1;labelBackgroundColor=none;shadow=1;fillColor=#f5f5f5;strokeColor=#666666;fontColor=#333333;fontFamily=Times New Roman;" parent="1" vertex="1">
          <mxGeometry x="1140" y="1870" width="180" height="60" as="geometry" />
        </mxCell>
        <mxCell id="7gxIuWQ1MeZ081-h1M4B-33" style="edgeStyle=orthogonalEdgeStyle;rounded=0;orthogonalLoop=1;jettySize=auto;html=1;entryX=0;entryY=0.5;entryDx=0;entryDy=0;fillColor=#f5f5f5;strokeColor=#666666;" parent="1" source="7gxIuWQ1MeZ081-h1M4B-32" target="7gxIuWQ1MeZ081-h1M4B-48" edge="1">
          <mxGeometry relative="1" as="geometry" />
        </mxCell>
        <mxCell id="7gxIuWQ1MeZ081-h1M4B-34" value="寄贈情報一覧" style="rounded=0;whiteSpace=wrap;html=1;labelBackgroundColor=none;shadow=1;fillColor=#f5f5f5;strokeColor=#666666;fontColor=#333333;fontFamily=Times New Roman;" parent="1" vertex="1">
          <mxGeometry x="1140" y="1660" width="180" height="60" as="geometry" />
        </mxCell>
        <mxCell id="7gxIuWQ1MeZ081-h1M4B-35" style="edgeStyle=orthogonalEdgeStyle;rounded=0;orthogonalLoop=1;jettySize=auto;html=1;entryX=0;entryY=0.5;entryDx=0;entryDy=0;fillColor=#f5f5f5;strokeColor=#666666;" parent="1" source="7gxIuWQ1MeZ081-h1M4B-34" target="7gxIuWQ1MeZ081-h1M4B-42" edge="1">
          <mxGeometry relative="1" as="geometry" />
        </mxCell>
        <mxCell id="7gxIuWQ1MeZ081-h1M4B-36" style="edgeStyle=orthogonalEdgeStyle;rounded=0;orthogonalLoop=1;jettySize=auto;html=1;entryX=0;entryY=0.5;entryDx=0;entryDy=0;fillColor=#f5f5f5;strokeColor=#666666;" parent="1" source="7gxIuWQ1MeZ081-h1M4B-32" target="7gxIuWQ1MeZ081-h1M4B-55" edge="1">
          <mxGeometry relative="1" as="geometry" />
        </mxCell>
        <mxCell id="7gxIuWQ1MeZ081-h1M4B-37" style="edgeStyle=orthogonalEdgeStyle;rounded=0;orthogonalLoop=1;jettySize=auto;html=1;fillColor=#f5f5f5;strokeColor=#666666;" parent="1" source="7gxIuWQ1MeZ081-h1M4B-38" target="7gxIuWQ1MeZ081-h1M4B-43" edge="1">
          <mxGeometry relative="1" as="geometry" />
        </mxCell>
        <mxCell id="7gxIuWQ1MeZ081-h1M4B-38" value="企画情報一覧" style="rounded=0;whiteSpace=wrap;html=1;labelBackgroundColor=none;shadow=1;fillColor=#f5f5f5;strokeColor=#666666;fontColor=#333333;fontFamily=Times New Roman;" parent="1" vertex="1">
          <mxGeometry x="1140" y="1560" width="180" height="60" as="geometry" />
        </mxCell>
        <mxCell id="7gxIuWQ1MeZ081-h1M4B-39" style="edgeStyle=orthogonalEdgeStyle;rounded=0;orthogonalLoop=1;jettySize=auto;html=1;fillColor=#f5f5f5;strokeColor=#666666;" parent="1" source="7gxIuWQ1MeZ081-h1M4B-40" edge="1">
          <mxGeometry relative="1" as="geometry">
            <mxPoint x="1400" y="1800.0000000000002" as="targetPoint" />
          </mxGeometry>
        </mxCell>
        <mxCell id="7gxIuWQ1MeZ081-h1M4B-40" value="その他情報一覧" style="rounded=0;whiteSpace=wrap;html=1;labelBackgroundColor=none;shadow=1;fillColor=#f5f5f5;strokeColor=#666666;fontColor=#333333;fontFamily=Times New Roman;" parent="1" vertex="1">
          <mxGeometry x="1140" y="1770" width="180" height="60" as="geometry" />
        </mxCell>
        <mxCell id="7gxIuWQ1MeZ081-h1M4B-41" value="その他情報詳細" style="rounded=0;whiteSpace=wrap;html=1;labelBackgroundColor=none;shadow=1;fillColor=#f5f5f5;strokeColor=#666666;fontColor=#333333;fontFamily=Times New Roman;" parent="1" vertex="1">
          <mxGeometry x="1400" y="1770" width="180" height="60" as="geometry" />
        </mxCell>
        <mxCell id="7gxIuWQ1MeZ081-h1M4B-42" value="寄贈情報詳細" style="rounded=0;whiteSpace=wrap;html=1;labelBackgroundColor=none;shadow=1;fillColor=#f5f5f5;strokeColor=#666666;fontColor=#333333;fontFamily=Times New Roman;" parent="1" vertex="1">
          <mxGeometry x="1400" y="1660" width="180" height="60" as="geometry" />
        </mxCell>
        <mxCell id="7gxIuWQ1MeZ081-h1M4B-43" value="企画情報詳細" style="rounded=0;whiteSpace=wrap;html=1;labelBackgroundColor=none;shadow=1;fillColor=#f5f5f5;strokeColor=#666666;fontColor=#333333;fontFamily=Times New Roman;" parent="1" vertex="1">
          <mxGeometry x="1400" y="1560" width="180" height="60" as="geometry" />
        </mxCell>
        <mxCell id="7gxIuWQ1MeZ081-h1M4B-44" value="ファンサイトTOP" style="rounded=0;whiteSpace=wrap;html=1;labelBackgroundColor=none;shadow=1;fillColor=#f5f5f5;strokeColor=#666666;fontColor=#333333;fontFamily=Times New Roman;" parent="1" vertex="1">
          <mxGeometry x="880" y="1560" width="180" height="60" as="geometry" />
        </mxCell>
        <mxCell id="7gxIuWQ1MeZ081-h1M4B-45" style="edgeStyle=orthogonalEdgeStyle;rounded=0;orthogonalLoop=1;jettySize=auto;html=1;entryX=0;entryY=0.5;entryDx=0;entryDy=0;fillColor=#f5f5f5;strokeColor=#666666;" parent="1" source="7gxIuWQ1MeZ081-h1M4B-44" target="7gxIuWQ1MeZ081-h1M4B-38" edge="1">
          <mxGeometry relative="1" as="geometry" />
        </mxCell>
        <mxCell id="7gxIuWQ1MeZ081-h1M4B-46" value="" style="ellipse;whiteSpace=wrap;html=1;aspect=fixed;labelBackgroundColor=#33001A;fillColor=#000000;fontFamily=Times New Roman;strokeColor=#7B7B7B;shadow=1;" parent="1" vertex="1">
          <mxGeometry x="950" y="1470" width="40" height="40" as="geometry" />
        </mxCell>
        <mxCell id="7gxIuWQ1MeZ081-h1M4B-47" style="edgeStyle=orthogonalEdgeStyle;rounded=0;orthogonalLoop=1;jettySize=auto;html=1;entryX=0;entryY=0.5;entryDx=0;entryDy=0;fillColor=#f5f5f5;strokeColor=#666666;" parent="1" source="7gxIuWQ1MeZ081-h1M4B-44" target="7gxIuWQ1MeZ081-h1M4B-34" edge="1">
          <mxGeometry relative="1" as="geometry" />
        </mxCell>
        <mxCell id="7gxIuWQ1MeZ081-h1M4B-48" value="書評管理ページ" style="rounded=0;whiteSpace=wrap;html=1;labelBackgroundColor=none;shadow=1;fillColor=#f5f5f5;strokeColor=#666666;fontColor=#333333;fontFamily=Times New Roman;" parent="1" vertex="1">
          <mxGeometry x="1400" y="1970" width="180" height="60" as="geometry" />
        </mxCell>
        <mxCell id="7gxIuWQ1MeZ081-h1M4B-49" style="edgeStyle=orthogonalEdgeStyle;rounded=0;orthogonalLoop=1;jettySize=auto;html=1;entryX=0.5;entryY=0;entryDx=0;entryDy=0;fontFamily=Times New Roman;strokeColor=#666666;shadow=1;fillColor=#f5f5f5;" parent="1" source="7gxIuWQ1MeZ081-h1M4B-46" target="7gxIuWQ1MeZ081-h1M4B-44" edge="1">
          <mxGeometry relative="1" as="geometry" />
        </mxCell>
        <mxCell id="7gxIuWQ1MeZ081-h1M4B-50" style="edgeStyle=orthogonalEdgeStyle;rounded=0;orthogonalLoop=1;jettySize=auto;html=1;entryX=0;entryY=0.5;entryDx=0;entryDy=0;fillColor=#f5f5f5;strokeColor=#666666;" parent="1" source="7gxIuWQ1MeZ081-h1M4B-44" target="7gxIuWQ1MeZ081-h1M4B-40" edge="1">
          <mxGeometry relative="1" as="geometry" />
        </mxCell>
        <mxCell id="7gxIuWQ1MeZ081-h1M4B-51" style="edgeStyle=orthogonalEdgeStyle;rounded=0;orthogonalLoop=1;jettySize=auto;html=1;entryX=0;entryY=0.5;entryDx=0;entryDy=0;fillColor=#f5f5f5;strokeColor=#666666;" parent="1" source="7gxIuWQ1MeZ081-h1M4B-44" target="7gxIuWQ1MeZ081-h1M4B-32" edge="1">
          <mxGeometry relative="1" as="geometry" />
        </mxCell>
        <mxCell id="7gxIuWQ1MeZ081-h1M4B-52" value="退会完了画面" style="rounded=0;whiteSpace=wrap;html=1;labelBackgroundColor=none;shadow=1;fillColor=#f5f5f5;strokeColor=#666666;fontColor=#333333;fontFamily=Times New Roman;" parent="1" vertex="1">
          <mxGeometry x="1924.5" y="1870" width="180" height="60" as="geometry" />
        </mxCell>
        <mxCell id="7gxIuWQ1MeZ081-h1M4B-53" style="edgeStyle=orthogonalEdgeStyle;rounded=0;orthogonalLoop=1;jettySize=auto;html=1;entryX=0;entryY=0.5;entryDx=0;entryDy=0;fillColor=#f5f5f5;strokeColor=#666666;" parent="1" source="7gxIuWQ1MeZ081-h1M4B-54" target="7gxIuWQ1MeZ081-h1M4B-52" edge="1">
          <mxGeometry relative="1" as="geometry">
            <mxPoint x="1920" y="1900" as="targetPoint" />
          </mxGeometry>
        </mxCell>
        <mxCell id="7gxIuWQ1MeZ081-h1M4B-54" value="退会手続き画面" style="rounded=0;whiteSpace=wrap;html=1;labelBackgroundColor=none;shadow=1;fillColor=#f5f5f5;strokeColor=#666666;fontColor=#333333;fontFamily=Times New Roman;" parent="1" vertex="1">
          <mxGeometry x="1660" y="1870" width="180" height="60" as="geometry" />
        </mxCell>
        <mxCell id="7gxIuWQ1MeZ081-h1M4B-55" value="書評詳細ページ" style="rounded=0;whiteSpace=wrap;html=1;labelBackgroundColor=none;shadow=1;fillColor=#f5f5f5;strokeColor=#666666;fontColor=#333333;fontFamily=Times New Roman;" parent="1" vertex="1">
          <mxGeometry x="1400" y="2075" width="180" height="60" as="geometry" />
        </mxCell>
        <mxCell id="7gxIuWQ1MeZ081-h1M4B-56" style="edgeStyle=orthogonalEdgeStyle;rounded=0;orthogonalLoop=1;jettySize=auto;html=1;exitX=1;exitY=0.5;exitDx=0;exitDy=0;entryX=0;entryY=1;entryDx=0;entryDy=0;" parent="1" source="7gxIuWQ1MeZ081-h1M4B-46" target="7gxIuWQ1MeZ081-h1M4B-46" edge="1">
          <mxGeometry relative="1" as="geometry" />
        </mxCell>
        <mxCell id="7gxIuWQ1MeZ081-h1M4B-57" style="edgeStyle=orthogonalEdgeStyle;rounded=0;orthogonalLoop=1;jettySize=auto;html=1;fillColor=#f5f5f5;strokeColor=#666666;" parent="1" source="7gxIuWQ1MeZ081-h1M4B-59" edge="1">
          <mxGeometry relative="1" as="geometry">
            <mxPoint x="1490" y="1970" as="targetPoint" />
          </mxGeometry>
        </mxCell>
        <mxCell id="7gxIuWQ1MeZ081-h1M4B-58" style="edgeStyle=orthogonalEdgeStyle;rounded=0;orthogonalLoop=1;jettySize=auto;html=1;entryX=0;entryY=0.5;entryDx=0;entryDy=0;fillColor=#f5f5f5;strokeColor=#666666;" parent="1" source="7gxIuWQ1MeZ081-h1M4B-59" target="7gxIuWQ1MeZ081-h1M4B-54" edge="1">
          <mxGeometry relative="1" as="geometry" />
        </mxCell>
        <mxCell id="7gxIuWQ1MeZ081-h1M4B-59" value="マイページ" style="rounded=0;whiteSpace=wrap;html=1;labelBackgroundColor=none;shadow=1;fillColor=#f5f5f5;strokeColor=#666666;fontColor=#333333;fontFamily=Times New Roman;" parent="1" vertex="1">
          <mxGeometry x="1400" y="1870" width="180" height="60" as="geometry" />
        </mxCell>
        <mxCell id="7gxIuWQ1MeZ081-h1M4B-60" value="&lt;font style=&quot;font-size: 48px;&quot;&gt;ゲスト登録ユーザ・QR投稿&lt;/font&gt;" style="text;html=1;align=center;verticalAlign=middle;whiteSpace=wrap;rounded=0;" parent="1" vertex="1">
          <mxGeometry x="250" y="1280" width="700" height="140" as="geometry" />
        </mxCell>
        <mxCell id="7gxIuWQ1MeZ081-h1M4B-61" value="" style="group" parent="1" connectable="0" vertex="1">
          <mxGeometry x="1070" y="340" width="1430" height="830" as="geometry" />
        </mxCell>
        <mxCell id="7gxIuWQ1MeZ081-h1M4B-62" value="" style="rounded=0;whiteSpace=wrap;html=1;movable=0;resizable=0;rotatable=0;deletable=0;editable=0;locked=1;connectable=0;" parent="7gxIuWQ1MeZ081-h1M4B-61" vertex="1">
          <mxGeometry width="1430" height="830" as="geometry" />
        </mxCell>
        <mxCell id="7gxIuWQ1MeZ081-h1M4B-63" style="edgeStyle=orthogonalEdgeStyle;rounded=0;orthogonalLoop=1;jettySize=auto;html=1;fillColor=#f5f5f5;strokeColor=#666666;" parent="7gxIuWQ1MeZ081-h1M4B-61" source="7gxIuWQ1MeZ081-h1M4B-66" edge="1">
          <mxGeometry relative="1" as="geometry">
            <mxPoint x="620" y="550" as="targetPoint" />
          </mxGeometry>
        </mxCell>
        <mxCell id="7gxIuWQ1MeZ081-h1M4B-64" style="edgeStyle=orthogonalEdgeStyle;rounded=0;orthogonalLoop=1;jettySize=auto;html=1;entryX=0;entryY=0.5;entryDx=0;entryDy=0;fillColor=#f5f5f5;strokeColor=#666666;" parent="7gxIuWQ1MeZ081-h1M4B-61" source="7gxIuWQ1MeZ081-h1M4B-66" target="7gxIuWQ1MeZ081-h1M4B-83" edge="1">
          <mxGeometry relative="1" as="geometry" />
        </mxCell>
        <mxCell id="7gxIuWQ1MeZ081-h1M4B-65" style="edgeStyle=orthogonalEdgeStyle;rounded=0;orthogonalLoop=1;jettySize=auto;html=1;entryX=0;entryY=0.5;entryDx=0;entryDy=0;fillColor=#f5f5f5;strokeColor=#666666;startArrow=classic;startFill=1;" parent="7gxIuWQ1MeZ081-h1M4B-61" source="7gxIuWQ1MeZ081-h1M4B-66" target="7gxIuWQ1MeZ081-h1M4B-84" edge="1">
          <mxGeometry relative="1" as="geometry" />
        </mxCell>
        <mxCell id="7gxIuWQ1MeZ081-h1M4B-66" value="企画ページ" style="rounded=0;whiteSpace=wrap;html=1;labelBackgroundColor=none;shadow=1;fillColor=#f5f5f5;strokeColor=#666666;fontColor=#333333;fontFamily=Times New Roman;" parent="7gxIuWQ1MeZ081-h1M4B-61" vertex="1">
          <mxGeometry x="360" y="520" width="180" height="60" as="geometry" />
        </mxCell>
        <mxCell id="7gxIuWQ1MeZ081-h1M4B-67" style="edgeStyle=orthogonalEdgeStyle;rounded=0;orthogonalLoop=1;jettySize=auto;html=1;entryX=0;entryY=0.5;entryDx=0;entryDy=0;fillColor=#f5f5f5;strokeColor=#666666;startArrow=classic;startFill=1;" parent="7gxIuWQ1MeZ081-h1M4B-61" source="7gxIuWQ1MeZ081-h1M4B-68" target="7gxIuWQ1MeZ081-h1M4B-74" edge="1">
          <mxGeometry relative="1" as="geometry" />
        </mxCell>
        <mxCell id="7gxIuWQ1MeZ081-h1M4B-68" value="寄贈情報一覧" style="rounded=0;whiteSpace=wrap;html=1;labelBackgroundColor=none;shadow=1;fillColor=#f5f5f5;strokeColor=#666666;fontColor=#333333;fontFamily=Times New Roman;" parent="7gxIuWQ1MeZ081-h1M4B-61" vertex="1">
          <mxGeometry x="360" y="310" width="180" height="60" as="geometry" />
        </mxCell>
        <mxCell id="7gxIuWQ1MeZ081-h1M4B-69" style="edgeStyle=orthogonalEdgeStyle;rounded=0;orthogonalLoop=1;jettySize=auto;html=1;entryX=0;entryY=0.5;entryDx=0;entryDy=0;fillColor=#f5f5f5;strokeColor=#666666;startArrow=classic;startFill=1;" parent="7gxIuWQ1MeZ081-h1M4B-61" source="7gxIuWQ1MeZ081-h1M4B-70" target="7gxIuWQ1MeZ081-h1M4B-75" edge="1">
          <mxGeometry relative="1" as="geometry" />
        </mxCell>
        <mxCell id="7gxIuWQ1MeZ081-h1M4B-70" value="企画情報一覧" style="rounded=0;whiteSpace=wrap;html=1;labelBackgroundColor=none;shadow=1;fillColor=#f5f5f5;strokeColor=#666666;fontColor=#333333;fontFamily=Times New Roman;" parent="7gxIuWQ1MeZ081-h1M4B-61" vertex="1">
          <mxGeometry x="360" y="210" width="180" height="60" as="geometry" />
        </mxCell>
        <mxCell id="7gxIuWQ1MeZ081-h1M4B-71" style="edgeStyle=orthogonalEdgeStyle;rounded=0;orthogonalLoop=1;jettySize=auto;html=1;fillColor=#f5f5f5;strokeColor=#666666;startArrow=classic;startFill=1;" parent="7gxIuWQ1MeZ081-h1M4B-61" source="7gxIuWQ1MeZ081-h1M4B-72" edge="1">
          <mxGeometry relative="1" as="geometry">
            <mxPoint x="620" y="450.0000000000002" as="targetPoint" />
          </mxGeometry>
        </mxCell>
        <mxCell id="7gxIuWQ1MeZ081-h1M4B-72" value="その他情報一覧" style="rounded=0;whiteSpace=wrap;html=1;labelBackgroundColor=none;shadow=1;fillColor=#f5f5f5;strokeColor=#666666;fontColor=#333333;fontFamily=Times New Roman;" parent="7gxIuWQ1MeZ081-h1M4B-61" vertex="1">
          <mxGeometry x="360" y="420" width="180" height="60" as="geometry" />
        </mxCell>
        <mxCell id="7gxIuWQ1MeZ081-h1M4B-73" value="その他情報詳細" style="rounded=0;whiteSpace=wrap;html=1;labelBackgroundColor=none;shadow=1;fillColor=#f5f5f5;strokeColor=#666666;fontColor=#333333;fontFamily=Times New Roman;" parent="7gxIuWQ1MeZ081-h1M4B-61" vertex="1">
          <mxGeometry x="620" y="420" width="180" height="60" as="geometry" />
        </mxCell>
        <mxCell id="7gxIuWQ1MeZ081-h1M4B-74" value="寄贈情報詳細" style="rounded=0;whiteSpace=wrap;html=1;labelBackgroundColor=none;shadow=1;fillColor=#f5f5f5;strokeColor=#666666;fontColor=#333333;fontFamily=Times New Roman;" parent="7gxIuWQ1MeZ081-h1M4B-61" vertex="1">
          <mxGeometry x="620" y="310" width="180" height="60" as="geometry" />
        </mxCell>
        <mxCell id="7gxIuWQ1MeZ081-h1M4B-75" value="企画情報詳細" style="rounded=0;whiteSpace=wrap;html=1;labelBackgroundColor=none;shadow=1;fillColor=#f5f5f5;strokeColor=#666666;fontColor=#333333;fontFamily=Times New Roman;" parent="7gxIuWQ1MeZ081-h1M4B-61" vertex="1">
          <mxGeometry x="620" y="210" width="180" height="60" as="geometry" />
        </mxCell>
        <mxCell id="7gxIuWQ1MeZ081-h1M4B-76" style="edgeStyle=orthogonalEdgeStyle;rounded=0;orthogonalLoop=1;jettySize=auto;html=1;entryX=0;entryY=0.5;entryDx=0;entryDy=0;fillColor=#f5f5f5;strokeColor=#666666;" parent="7gxIuWQ1MeZ081-h1M4B-61" source="7gxIuWQ1MeZ081-h1M4B-80" target="7gxIuWQ1MeZ081-h1M4B-70" edge="1">
          <mxGeometry relative="1" as="geometry" />
        </mxCell>
        <mxCell id="7gxIuWQ1MeZ081-h1M4B-77" style="edgeStyle=orthogonalEdgeStyle;rounded=0;orthogonalLoop=1;jettySize=auto;html=1;entryX=0;entryY=0.5;entryDx=0;entryDy=0;fillColor=#f5f5f5;strokeColor=#666666;" parent="7gxIuWQ1MeZ081-h1M4B-61" source="7gxIuWQ1MeZ081-h1M4B-80" target="7gxIuWQ1MeZ081-h1M4B-68" edge="1">
          <mxGeometry relative="1" as="geometry" />
        </mxCell>
        <mxCell id="7gxIuWQ1MeZ081-h1M4B-78" style="edgeStyle=orthogonalEdgeStyle;rounded=0;orthogonalLoop=1;jettySize=auto;html=1;entryX=0;entryY=0.5;entryDx=0;entryDy=0;fillColor=#f5f5f5;strokeColor=#666666;" parent="7gxIuWQ1MeZ081-h1M4B-61" source="7gxIuWQ1MeZ081-h1M4B-80" target="7gxIuWQ1MeZ081-h1M4B-72" edge="1">
          <mxGeometry relative="1" as="geometry" />
        </mxCell>
        <mxCell id="7gxIuWQ1MeZ081-h1M4B-79" style="edgeStyle=orthogonalEdgeStyle;rounded=0;orthogonalLoop=1;jettySize=auto;html=1;entryX=0;entryY=0.5;entryDx=0;entryDy=0;fillColor=#f5f5f5;strokeColor=#666666;startArrow=classic;startFill=1;" parent="7gxIuWQ1MeZ081-h1M4B-61" source="7gxIuWQ1MeZ081-h1M4B-80" target="7gxIuWQ1MeZ081-h1M4B-66" edge="1">
          <mxGeometry relative="1" as="geometry" />
        </mxCell>
        <mxCell id="7gxIuWQ1MeZ081-h1M4B-80" value="ファンサイトTOP" style="rounded=0;whiteSpace=wrap;html=1;labelBackgroundColor=none;shadow=1;fillColor=#f5f5f5;strokeColor=#666666;fontColor=#333333;fontFamily=Times New Roman;" parent="7gxIuWQ1MeZ081-h1M4B-61" vertex="1">
          <mxGeometry x="100" y="210" width="180" height="60" as="geometry" />
        </mxCell>
        <mxCell id="7gxIuWQ1MeZ081-h1M4B-81" value="" style="ellipse;whiteSpace=wrap;html=1;aspect=fixed;labelBackgroundColor=#33001A;fillColor=#000000;fontFamily=Times New Roman;strokeColor=#666666;shadow=1;" parent="7gxIuWQ1MeZ081-h1M4B-61" vertex="1">
          <mxGeometry x="170" y="120" width="40" height="40" as="geometry" />
        </mxCell>
        <mxCell id="7gxIuWQ1MeZ081-h1M4B-82" style="edgeStyle=orthogonalEdgeStyle;rounded=0;orthogonalLoop=1;jettySize=auto;html=1;entryX=0.5;entryY=0;entryDx=0;entryDy=0;fontFamily=Times New Roman;strokeColor=#666666;shadow=1;fillColor=#f5f5f5;" parent="7gxIuWQ1MeZ081-h1M4B-61" source="7gxIuWQ1MeZ081-h1M4B-81" target="7gxIuWQ1MeZ081-h1M4B-80" edge="1">
          <mxGeometry relative="1" as="geometry" />
        </mxCell>
        <mxCell id="7gxIuWQ1MeZ081-h1M4B-83" value="書評管理ページ" style="rounded=0;whiteSpace=wrap;html=1;labelBackgroundColor=none;shadow=1;fillColor=#f5f5f5;strokeColor=#666666;fontColor=#333333;fontFamily=Times New Roman;" parent="7gxIuWQ1MeZ081-h1M4B-61" vertex="1">
          <mxGeometry x="620" y="620" width="180" height="60" as="geometry" />
        </mxCell>
        <mxCell id="7gxIuWQ1MeZ081-h1M4B-84" value="書評詳細ページ" style="rounded=0;whiteSpace=wrap;html=1;labelBackgroundColor=none;shadow=1;fillColor=#f5f5f5;strokeColor=#666666;fontColor=#333333;fontFamily=Times New Roman;" parent="7gxIuWQ1MeZ081-h1M4B-61" vertex="1">
          <mxGeometry x="620" y="725" width="180" height="60" as="geometry" />
        </mxCell>
        <mxCell id="7gxIuWQ1MeZ081-h1M4B-85" value="&lt;font style=&quot;font-size: 48px;&quot;&gt;ゲスト登録ユーザ&lt;/font&gt;" style="text;html=1;align=center;verticalAlign=middle;whiteSpace=wrap;rounded=0;" parent="7gxIuWQ1MeZ081-h1M4B-61" vertex="1">
          <mxGeometry x="90" width="410" height="140" as="geometry" />
        </mxCell>
        <mxCell id="7gxIuWQ1MeZ081-h1M4B-86" style="edgeStyle=orthogonalEdgeStyle;rounded=0;orthogonalLoop=1;jettySize=auto;html=1;entryX=0;entryY=0.5;entryDx=0;entryDy=0;strokeColor=#666666;startArrow=classic;startFill=1;" parent="7gxIuWQ1MeZ081-h1M4B-61" source="7gxIuWQ1MeZ081-h1M4B-87" target="7gxIuWQ1MeZ081-h1M4B-90" edge="1">
          <mxGeometry relative="1" as="geometry" />
        </mxCell>
        <mxCell id="7gxIuWQ1MeZ081-h1M4B-87" value="マイページ" style="rounded=0;whiteSpace=wrap;html=1;labelBackgroundColor=none;shadow=1;fillColor=#f5f5f5;strokeColor=#666666;fontColor=#333333;fontFamily=Times New Roman;" parent="7gxIuWQ1MeZ081-h1M4B-61" vertex="1">
          <mxGeometry x="620" y="520" width="180" height="60" as="geometry" />
        </mxCell>
        <mxCell id="7gxIuWQ1MeZ081-h1M4B-88" value="退会完了画面" style="rounded=0;whiteSpace=wrap;html=1;labelBackgroundColor=none;shadow=1;fillColor=#f5f5f5;strokeColor=#666666;fontColor=#333333;fontFamily=Times New Roman;" parent="7gxIuWQ1MeZ081-h1M4B-61" vertex="1">
          <mxGeometry x="1144.5" y="520" width="180" height="60" as="geometry" />
        </mxCell>
        <mxCell id="7gxIuWQ1MeZ081-h1M4B-89" style="edgeStyle=orthogonalEdgeStyle;rounded=0;orthogonalLoop=1;jettySize=auto;html=1;entryX=0;entryY=0.5;entryDx=0;entryDy=0;fillColor=#f5f5f5;strokeColor=#666666;startArrow=none;startFill=0;" parent="7gxIuWQ1MeZ081-h1M4B-61" source="7gxIuWQ1MeZ081-h1M4B-90" target="7gxIuWQ1MeZ081-h1M4B-88" edge="1">
          <mxGeometry relative="1" as="geometry">
            <mxPoint x="1140" y="550" as="targetPoint" />
          </mxGeometry>
        </mxCell>
        <mxCell id="7gxIuWQ1MeZ081-h1M4B-90" value="退会手続き画面" style="rounded=0;whiteSpace=wrap;html=1;labelBackgroundColor=none;shadow=1;fillColor=#f5f5f5;strokeColor=#666666;fontColor=#333333;fontFamily=Times New Roman;" parent="7gxIuWQ1MeZ081-h1M4B-61" vertex="1">
          <mxGeometry x="880" y="520" width="180" height="60" as="geometry" />
        </mxCell>
        <mxCell id="7gxIuWQ1MeZ081-h1M4B-91" style="edgeStyle=orthogonalEdgeStyle;rounded=0;orthogonalLoop=1;jettySize=auto;html=1;fillColor=#f5f5f5;strokeColor=#7B7B7B;fontFamily=Times New Roman;shadow=1;" parent="1" source="7gxIuWQ1MeZ081-h1M4B-110" edge="1">
          <mxGeometry relative="1" as="geometry">
            <mxPoint x="480" y="1790" as="targetPoint" />
          </mxGeometry>
        </mxCell>
        <mxCell id="7gxIuWQ1MeZ081-h1M4B-92" value="" style="group" parent="1" connectable="0" vertex="1">
          <mxGeometry x="240" y="340" width="730" height="830" as="geometry" />
        </mxCell>
        <mxCell id="7gxIuWQ1MeZ081-h1M4B-93" value="" style="rounded=0;whiteSpace=wrap;html=1;movable=0;resizable=0;rotatable=0;deletable=0;editable=0;locked=1;connectable=0;" parent="7gxIuWQ1MeZ081-h1M4B-92" vertex="1">
          <mxGeometry x="20" width="710" height="830" as="geometry" />
        </mxCell>
        <mxCell id="7gxIuWQ1MeZ081-h1M4B-94" style="edgeStyle=orthogonalEdgeStyle;rounded=0;orthogonalLoop=1;jettySize=auto;html=1;fillColor=#f5f5f5;strokeColor=#7B7B7B;fontFamily=Times New Roman;shadow=1;" parent="7gxIuWQ1MeZ081-h1M4B-92" source="7gxIuWQ1MeZ081-h1M4B-95" edge="1">
          <mxGeometry relative="1" as="geometry">
            <mxPoint x="270" y="450" as="targetPoint" />
          </mxGeometry>
        </mxCell>
        <mxCell id="7gxIuWQ1MeZ081-h1M4B-95" value="書評投稿画面" style="rounded=0;whiteSpace=wrap;html=1;labelBackgroundColor=none;shadow=1;fillColor=#f5f5f5;strokeColor=#7B7B7B;fontColor=#333333;fontFamily=Times New Roman;" parent="7gxIuWQ1MeZ081-h1M4B-92" vertex="1">
          <mxGeometry x="180" y="340" width="180" height="60" as="geometry" />
        </mxCell>
        <mxCell id="7gxIuWQ1MeZ081-h1M4B-96" style="edgeStyle=orthogonalEdgeStyle;rounded=0;orthogonalLoop=1;jettySize=auto;html=1;entryX=0.5;entryY=0;entryDx=0;entryDy=0;fillColor=#f5f5f5;strokeColor=#7B7B7B;fontFamily=Times New Roman;shadow=1;" parent="7gxIuWQ1MeZ081-h1M4B-92" source="7gxIuWQ1MeZ081-h1M4B-99" target="7gxIuWQ1MeZ081-h1M4B-95" edge="1">
          <mxGeometry relative="1" as="geometry" />
        </mxCell>
        <mxCell id="7gxIuWQ1MeZ081-h1M4B-97" style="edgeStyle=orthogonalEdgeStyle;rounded=0;orthogonalLoop=1;jettySize=auto;html=1;entryX=0.5;entryY=0;entryDx=0;entryDy=0;fillColor=#f5f5f5;strokeColor=#7B7B7B;fontFamily=Times New Roman;shadow=1;" parent="7gxIuWQ1MeZ081-h1M4B-92" source="7gxIuWQ1MeZ081-h1M4B-99" target="7gxIuWQ1MeZ081-h1M4B-95" edge="1">
          <mxGeometry relative="1" as="geometry" />
        </mxCell>
        <mxCell id="7gxIuWQ1MeZ081-h1M4B-98" style="edgeStyle=orthogonalEdgeStyle;rounded=0;orthogonalLoop=1;jettySize=auto;html=1;startArrow=classic;startFill=1;strokeColor=#7B7B7B;" parent="7gxIuWQ1MeZ081-h1M4B-92" source="7gxIuWQ1MeZ081-h1M4B-99" edge="1">
          <mxGeometry relative="1" as="geometry">
            <mxPoint x="430" y="250" as="targetPoint" />
          </mxGeometry>
        </mxCell>
        <mxCell id="7gxIuWQ1MeZ081-h1M4B-99" value="&lt;font face=&quot;Helvetica&quot; color=&quot;#000000&quot;&gt;ログイン画面&lt;/font&gt;" style="rounded=0;whiteSpace=wrap;html=1;labelBackgroundColor=none;shadow=1;fillColor=#f5f5f5;strokeColor=#7B7B7B;fontColor=#333333;fontFamily=Times New Roman;" parent="7gxIuWQ1MeZ081-h1M4B-92" vertex="1">
          <mxGeometry x="180" y="220" width="180" height="60" as="geometry" />
        </mxCell>
        <mxCell id="7gxIuWQ1MeZ081-h1M4B-100" value="" style="ellipse;whiteSpace=wrap;html=1;aspect=fixed;labelBackgroundColor=#33001A;fillColor=#000000;fontFamily=Times New Roman;strokeColor=#7B7B7B;shadow=1;" parent="7gxIuWQ1MeZ081-h1M4B-92" vertex="1">
          <mxGeometry x="250" y="130" width="40" height="40" as="geometry" />
        </mxCell>
        <mxCell id="7gxIuWQ1MeZ081-h1M4B-101" style="edgeStyle=orthogonalEdgeStyle;rounded=0;orthogonalLoop=1;jettySize=auto;html=1;entryX=0.5;entryY=0;entryDx=0;entryDy=0;fontFamily=Times New Roman;strokeColor=#7B7B7B;shadow=1;" parent="7gxIuWQ1MeZ081-h1M4B-92" target="7gxIuWQ1MeZ081-h1M4B-99" edge="1">
          <mxGeometry relative="1" as="geometry">
            <mxPoint x="270" y="170" as="sourcePoint" />
          </mxGeometry>
        </mxCell>
        <mxCell id="7gxIuWQ1MeZ081-h1M4B-102" value="&lt;span style=&quot;font-size: 48px;&quot;&gt;QR投稿&lt;/span&gt;" style="text;html=1;align=center;verticalAlign=middle;whiteSpace=wrap;rounded=0;" parent="7gxIuWQ1MeZ081-h1M4B-92" vertex="1">
          <mxGeometry width="410" height="140" as="geometry" />
        </mxCell>
        <mxCell id="7gxIuWQ1MeZ081-h1M4B-103" style="edgeStyle=orthogonalEdgeStyle;rounded=0;orthogonalLoop=1;jettySize=auto;html=1;entryX=0.5;entryY=0;entryDx=0;entryDy=0;startArrow=classic;startFill=1;strokeColor=#7B7B7B;" parent="7gxIuWQ1MeZ081-h1M4B-92" source="7gxIuWQ1MeZ081-h1M4B-104" target="7gxIuWQ1MeZ081-h1M4B-109" edge="1">
          <mxGeometry relative="1" as="geometry" />
        </mxCell>
        <mxCell id="7gxIuWQ1MeZ081-h1M4B-104" value="新規登録画面" style="rounded=0;whiteSpace=wrap;html=1;labelBackgroundColor=none;shadow=1;fillColor=#f5f5f5;strokeColor=#7B7B7B;fontColor=#333333;fontFamily=Times New Roman;" parent="7gxIuWQ1MeZ081-h1M4B-92" vertex="1">
          <mxGeometry x="430" y="220" width="180" height="60" as="geometry" />
        </mxCell>
        <mxCell id="7gxIuWQ1MeZ081-h1M4B-105" style="edgeStyle=orthogonalEdgeStyle;rounded=0;orthogonalLoop=1;jettySize=auto;html=1;entryX=0.5;entryY=0;entryDx=0;entryDy=0;strokeColor=#7B7B7B;" parent="7gxIuWQ1MeZ081-h1M4B-92" source="7gxIuWQ1MeZ081-h1M4B-106" target="7gxIuWQ1MeZ081-h1M4B-107" edge="1">
          <mxGeometry relative="1" as="geometry" />
        </mxCell>
        <mxCell id="7gxIuWQ1MeZ081-h1M4B-106" value="書評投稿確認画面" style="rounded=0;whiteSpace=wrap;html=1;labelBackgroundColor=none;shadow=1;fillColor=#f5f5f5;strokeColor=#7B7B7B;fontColor=#333333;fontFamily=Times New Roman;" parent="7gxIuWQ1MeZ081-h1M4B-92" vertex="1">
          <mxGeometry x="180" y="450" width="180" height="60" as="geometry" />
        </mxCell>
        <mxCell id="7gxIuWQ1MeZ081-h1M4B-107" value="企画ページ" style="rounded=0;whiteSpace=wrap;html=1;labelBackgroundColor=none;shadow=1;fillColor=#f5f5f5;strokeColor=#7B7B7B;fontColor=#333333;fontFamily=Times New Roman;" parent="7gxIuWQ1MeZ081-h1M4B-92" vertex="1">
          <mxGeometry x="180" y="550" width="180" height="60" as="geometry" />
        </mxCell>
        <mxCell id="7gxIuWQ1MeZ081-h1M4B-108" style="edgeStyle=orthogonalEdgeStyle;rounded=0;orthogonalLoop=1;jettySize=auto;html=1;startArrow=classic;startFill=1;strokeColor=#7B7B7B;entryX=1;entryY=0.75;entryDx=0;entryDy=0;" parent="7gxIuWQ1MeZ081-h1M4B-92" source="7gxIuWQ1MeZ081-h1M4B-109" target="7gxIuWQ1MeZ081-h1M4B-99" edge="1">
          <mxGeometry relative="1" as="geometry">
            <mxPoint x="400" y="250" as="targetPoint" />
          </mxGeometry>
        </mxCell>
        <mxCell id="7gxIuWQ1MeZ081-h1M4B-109" value="登録確認画面" style="rounded=0;whiteSpace=wrap;html=1;labelBackgroundColor=none;shadow=1;fillColor=#f5f5f5;strokeColor=#7B7B7B;fontColor=#333333;fontFamily=Times New Roman;" parent="7gxIuWQ1MeZ081-h1M4B-92" vertex="1">
          <mxGeometry x="430" y="340" width="180" height="60" as="geometry" />
        </mxCell>
        <mxCell id="7gxIuWQ1MeZ081-h1M4B-110" value="書評投稿画面" style="rounded=0;whiteSpace=wrap;html=1;labelBackgroundColor=none;shadow=1;fillColor=#f5f5f5;strokeColor=#7B7B7B;fontColor=#333333;fontFamily=Times New Roman;" parent="1" vertex="1">
          <mxGeometry x="390" y="1680" width="180" height="60" as="geometry" />
        </mxCell>
        <mxCell id="7gxIuWQ1MeZ081-h1M4B-111" style="edgeStyle=orthogonalEdgeStyle;rounded=0;orthogonalLoop=1;jettySize=auto;html=1;entryX=0.5;entryY=0;entryDx=0;entryDy=0;fillColor=#f5f5f5;strokeColor=#7B7B7B;fontFamily=Times New Roman;shadow=1;" parent="1" source="7gxIuWQ1MeZ081-h1M4B-114" target="7gxIuWQ1MeZ081-h1M4B-110" edge="1">
          <mxGeometry relative="1" as="geometry" />
        </mxCell>
        <mxCell id="7gxIuWQ1MeZ081-h1M4B-112" style="edgeStyle=orthogonalEdgeStyle;rounded=0;orthogonalLoop=1;jettySize=auto;html=1;entryX=0.5;entryY=0;entryDx=0;entryDy=0;fillColor=#f5f5f5;strokeColor=#7B7B7B;fontFamily=Times New Roman;shadow=1;" parent="1" source="7gxIuWQ1MeZ081-h1M4B-114" target="7gxIuWQ1MeZ081-h1M4B-110" edge="1">
          <mxGeometry relative="1" as="geometry" />
        </mxCell>
        <mxCell id="7gxIuWQ1MeZ081-h1M4B-113" style="edgeStyle=orthogonalEdgeStyle;rounded=0;orthogonalLoop=1;jettySize=auto;html=1;startArrow=classic;startFill=1;strokeColor=#7B7B7B;" parent="1" source="7gxIuWQ1MeZ081-h1M4B-114" edge="1">
          <mxGeometry relative="1" as="geometry">
            <mxPoint x="640" y="1590" as="targetPoint" />
          </mxGeometry>
        </mxCell>
        <mxCell id="7gxIuWQ1MeZ081-h1M4B-114" value="&lt;font face=&quot;Helvetica&quot; color=&quot;#000000&quot;&gt;ログイン画面&lt;/font&gt;" style="rounded=0;whiteSpace=wrap;html=1;labelBackgroundColor=none;shadow=1;fillColor=#f5f5f5;strokeColor=#7B7B7B;fontColor=#333333;fontFamily=Times New Roman;" parent="1" vertex="1">
          <mxGeometry x="390" y="1560" width="180" height="60" as="geometry" />
        </mxCell>
        <mxCell id="7gxIuWQ1MeZ081-h1M4B-115" value="" style="ellipse;whiteSpace=wrap;html=1;aspect=fixed;labelBackgroundColor=#33001A;fillColor=#000000;fontFamily=Times New Roman;strokeColor=#7B7B7B;shadow=1;" parent="1" vertex="1">
          <mxGeometry x="460" y="1470" width="40" height="40" as="geometry" />
        </mxCell>
        <mxCell id="7gxIuWQ1MeZ081-h1M4B-116" style="edgeStyle=orthogonalEdgeStyle;rounded=0;orthogonalLoop=1;jettySize=auto;html=1;entryX=0.5;entryY=0;entryDx=0;entryDy=0;fontFamily=Times New Roman;strokeColor=#7B7B7B;shadow=1;" parent="1" target="7gxIuWQ1MeZ081-h1M4B-114" edge="1">
          <mxGeometry relative="1" as="geometry">
            <mxPoint x="480" y="1510" as="sourcePoint" />
          </mxGeometry>
        </mxCell>
        <mxCell id="7gxIuWQ1MeZ081-h1M4B-117" style="edgeStyle=orthogonalEdgeStyle;rounded=0;orthogonalLoop=1;jettySize=auto;html=1;entryX=0.5;entryY=0;entryDx=0;entryDy=0;startArrow=classic;startFill=1;strokeColor=#7B7B7B;" parent="1" source="7gxIuWQ1MeZ081-h1M4B-118" target="7gxIuWQ1MeZ081-h1M4B-122" edge="1">
          <mxGeometry relative="1" as="geometry" />
        </mxCell>
        <mxCell id="7gxIuWQ1MeZ081-h1M4B-118" value="新規登録画面" style="rounded=0;whiteSpace=wrap;html=1;labelBackgroundColor=none;shadow=1;fillColor=#f5f5f5;strokeColor=#7B7B7B;fontColor=#333333;fontFamily=Times New Roman;" parent="1" vertex="1">
          <mxGeometry x="640" y="1560" width="180" height="60" as="geometry" />
        </mxCell>
        <mxCell id="7gxIuWQ1MeZ081-h1M4B-119" style="edgeStyle=orthogonalEdgeStyle;rounded=0;orthogonalLoop=1;jettySize=auto;html=1;entryX=0;entryY=0.5;entryDx=0;entryDy=0;fillColor=#f5f5f5;strokeColor=#666666;" parent="1" source="7gxIuWQ1MeZ081-h1M4B-120" target="7gxIuWQ1MeZ081-h1M4B-32" edge="1">
          <mxGeometry relative="1" as="geometry">
            <Array as="points">
              <mxPoint x="480" y="1900" />
            </Array>
          </mxGeometry>
        </mxCell>
        <mxCell id="7gxIuWQ1MeZ081-h1M4B-120" value="書評投稿確認画面" style="rounded=0;whiteSpace=wrap;html=1;labelBackgroundColor=none;shadow=1;fillColor=#f5f5f5;strokeColor=#7B7B7B;fontColor=#333333;fontFamily=Times New Roman;" parent="1" vertex="1">
          <mxGeometry x="390" y="1790" width="180" height="60" as="geometry" />
        </mxCell>
        <mxCell id="7gxIuWQ1MeZ081-h1M4B-121" style="edgeStyle=orthogonalEdgeStyle;rounded=0;orthogonalLoop=1;jettySize=auto;html=1;startArrow=classic;startFill=1;strokeColor=#7B7B7B;" parent="1" source="7gxIuWQ1MeZ081-h1M4B-122" edge="1">
          <mxGeometry relative="1" as="geometry">
            <mxPoint x="610" y="1590" as="targetPoint" />
          </mxGeometry>
        </mxCell>
        <mxCell id="7gxIuWQ1MeZ081-h1M4B-122" value="登録確認画面" style="rounded=0;whiteSpace=wrap;html=1;labelBackgroundColor=none;shadow=1;fillColor=#f5f5f5;strokeColor=#7B7B7B;fontColor=#333333;fontFamily=Times New Roman;" parent="1" vertex="1">
          <mxGeometry x="640" y="1680" width="180" height="60" as="geometry" />
        </mxCell>
        <mxCell id="dvUCvhy8hgOWGYkQE4H1-1" value="" style="rounded=0;whiteSpace=wrap;html=1;movable=1;resizable=1;rotatable=1;deletable=1;editable=1;locked=0;connectable=1;" vertex="1" parent="1">
          <mxGeometry x="2590" y="340" width="1360" height="830" as="geometry" />
        </mxCell>
        <mxCell id="dvUCvhy8hgOWGYkQE4H1-2" style="edgeStyle=orthogonalEdgeStyle;rounded=0;orthogonalLoop=1;jettySize=auto;html=1;entryX=0;entryY=0.5;entryDx=0;entryDy=0;" edge="1" parent="1" source="dvUCvhy8hgOWGYkQE4H1-3" target="dvUCvhy8hgOWGYkQE4H1-9">
          <mxGeometry relative="1" as="geometry" />
        </mxCell>
        <mxCell id="dvUCvhy8hgOWGYkQE4H1-3" value="プロジェクト一覧" style="rounded=0;whiteSpace=wrap;html=1;labelBackgroundColor=none;shadow=1;fillColor=#f5f5f5;strokeColor=#666666;fontColor=#333333;fontFamily=Times New Roman;" vertex="1" parent="1">
          <mxGeometry x="3129.44492250739" y="750" width="196.14962565958496" height="60" as="geometry" />
        </mxCell>
        <mxCell id="dvUCvhy8hgOWGYkQE4H1-4" style="edgeStyle=orthogonalEdgeStyle;rounded=0;orthogonalLoop=1;jettySize=auto;html=1;entryX=0;entryY=0.5;entryDx=0;entryDy=0;fillColor=#f5f5f5;strokeColor=#666666;startArrow=classic;startFill=1;" edge="1" parent="1" source="dvUCvhy8hgOWGYkQE4H1-5" target="dvUCvhy8hgOWGYkQE4H1-11">
          <mxGeometry relative="1" as="geometry" />
        </mxCell>
        <mxCell id="dvUCvhy8hgOWGYkQE4H1-5" value="&lt;div&gt;書評一覧&lt;/div&gt;" style="rounded=0;whiteSpace=wrap;html=1;labelBackgroundColor=none;shadow=1;fillColor=#f5f5f5;strokeColor=#666666;fontColor=#333333;fontFamily=Times New Roman;" vertex="1" parent="1">
          <mxGeometry x="3129.44492250739" y="640" width="196.14962565958496" height="60" as="geometry" />
        </mxCell>
        <mxCell id="dvUCvhy8hgOWGYkQE4H1-6" style="edgeStyle=orthogonalEdgeStyle;rounded=0;orthogonalLoop=1;jettySize=auto;html=1;entryX=0;entryY=0.5;entryDx=0;entryDy=0;fillColor=#f5f5f5;strokeColor=#666666;startArrow=classic;startFill=1;" edge="1" parent="1" source="dvUCvhy8hgOWGYkQE4H1-7" target="dvUCvhy8hgOWGYkQE4H1-12">
          <mxGeometry relative="1" as="geometry" />
        </mxCell>
        <mxCell id="dvUCvhy8hgOWGYkQE4H1-7" value="アカウント一覧" style="rounded=0;whiteSpace=wrap;html=1;labelBackgroundColor=none;shadow=1;fillColor=#f5f5f5;strokeColor=#666666;fontColor=#333333;fontFamily=Times New Roman;" vertex="1" parent="1">
          <mxGeometry x="3129.44492250739" y="540" width="196.14962565958496" height="60" as="geometry" />
        </mxCell>
        <mxCell id="dvUCvhy8hgOWGYkQE4H1-8" style="edgeStyle=orthogonalEdgeStyle;rounded=0;orthogonalLoop=1;jettySize=auto;html=1;entryX=0;entryY=0.5;entryDx=0;entryDy=0;startArrow=classic;startFill=1;" edge="1" parent="1" source="dvUCvhy8hgOWGYkQE4H1-9" target="dvUCvhy8hgOWGYkQE4H1-31">
          <mxGeometry relative="1" as="geometry" />
        </mxCell>
        <mxCell id="dvUCvhy8hgOWGYkQE4H1-9" value="プロジェクト作成" style="rounded=0;whiteSpace=wrap;html=1;labelBackgroundColor=none;shadow=1;fillColor=#f5f5f5;strokeColor=#666666;fontColor=#333333;fontFamily=Times New Roman;" vertex="1" parent="1">
          <mxGeometry x="3412.7749225073917" y="750" width="196.14962565958496" height="60" as="geometry" />
        </mxCell>
        <mxCell id="dvUCvhy8hgOWGYkQE4H1-10" style="edgeStyle=orthogonalEdgeStyle;rounded=0;orthogonalLoop=1;jettySize=auto;html=1;entryX=0;entryY=0.5;entryDx=0;entryDy=0;" edge="1" parent="1" source="dvUCvhy8hgOWGYkQE4H1-11" target="dvUCvhy8hgOWGYkQE4H1-28">
          <mxGeometry relative="1" as="geometry" />
        </mxCell>
        <mxCell id="dvUCvhy8hgOWGYkQE4H1-11" value="書評詳細閲覧" style="rounded=0;whiteSpace=wrap;html=1;labelBackgroundColor=none;shadow=1;fillColor=#f5f5f5;strokeColor=#666666;fontColor=#333333;fontFamily=Times New Roman;" vertex="1" parent="1">
          <mxGeometry x="3412.772159571234" y="640" width="196.14962565958496" height="60" as="geometry" />
        </mxCell>
        <mxCell id="dvUCvhy8hgOWGYkQE4H1-12" value="アカウント詳細閲覧&lt;span style=&quot;color: rgba(0, 0, 0, 0); font-family: monospace; font-size: 0px; text-align: start; text-wrap-mode: nowrap;&quot;&gt;%3CmxGraphModel%3E%3Croot%3E%3CmxCell%20id%3D%220%22%2F%3E%3CmxCell%20id%3D%221%22%20parent%3D%220%22%2F%3E%3CmxCell%20id%3D%222%22%20value%3D%22%E4%BC%81%E7%94%BB%E4%B8%80%E8%A6%A7%22%20style%3D%22rounded%3D0%3BwhiteSpace%3Dwrap%3Bhtml%3D1%3BlabelBackgroundColor%3Dnone%3Bshadow%3D1%3BfillColor%3D%23f5f5f5%3BstrokeColor%3D%23666666%3BfontColor%3D%23333333%3BfontFamily%3DTimes%20New%20Roman%3B%22%20vertex%3D%221%22%20parent%3D%221%22%3E%3CmxGeometry%20x%3D%22-10544.545454545454%22%20y%3D%2290%22%20width%3D%22212.72727272727275%22%20height%3D%2260%22%20as%3D%22geometry%22%2F%3E%3C%2FmxCell%3E%3C%2Froot%3E%3C%2FmxGraphModel%3E&lt;/span&gt;" style="rounded=0;whiteSpace=wrap;html=1;labelBackgroundColor=none;shadow=1;fillColor=#f5f5f5;strokeColor=#666666;fontColor=#333333;fontFamily=Times New Roman;" vertex="1" parent="1">
          <mxGeometry x="3412.772159571234" y="540" width="196.14962565958496" height="60" as="geometry" />
        </mxCell>
        <mxCell id="dvUCvhy8hgOWGYkQE4H1-13" style="edgeStyle=orthogonalEdgeStyle;rounded=0;orthogonalLoop=1;jettySize=auto;html=1;entryX=0;entryY=0.5;entryDx=0;entryDy=0;fillColor=#f5f5f5;strokeColor=#666666;" edge="1" parent="1" source="dvUCvhy8hgOWGYkQE4H1-17" target="dvUCvhy8hgOWGYkQE4H1-7">
          <mxGeometry relative="1" as="geometry" />
        </mxCell>
        <mxCell id="dvUCvhy8hgOWGYkQE4H1-14" style="edgeStyle=orthogonalEdgeStyle;rounded=0;orthogonalLoop=1;jettySize=auto;html=1;entryX=0;entryY=0.5;entryDx=0;entryDy=0;fillColor=#f5f5f5;strokeColor=#666666;" edge="1" parent="1" source="dvUCvhy8hgOWGYkQE4H1-17" target="dvUCvhy8hgOWGYkQE4H1-5">
          <mxGeometry relative="1" as="geometry">
            <Array as="points">
              <mxPoint x="3090.48" y="570" />
              <mxPoint x="3090.48" y="670" />
            </Array>
          </mxGeometry>
        </mxCell>
        <mxCell id="dvUCvhy8hgOWGYkQE4H1-15" style="edgeStyle=orthogonalEdgeStyle;rounded=0;orthogonalLoop=1;jettySize=auto;html=1;entryX=0;entryY=0.5;entryDx=0;entryDy=0;fillColor=#f5f5f5;strokeColor=#666666;startArrow=classic;startFill=1;" edge="1" parent="1" source="dvUCvhy8hgOWGYkQE4H1-17" target="dvUCvhy8hgOWGYkQE4H1-3">
          <mxGeometry relative="1" as="geometry" />
        </mxCell>
        <mxCell id="dvUCvhy8hgOWGYkQE4H1-16" style="edgeStyle=orthogonalEdgeStyle;rounded=0;orthogonalLoop=1;jettySize=auto;html=1;entryX=0;entryY=0.5;entryDx=0;entryDy=0;strokeColor=#666666;" edge="1" parent="1" source="dvUCvhy8hgOWGYkQE4H1-17" target="dvUCvhy8hgOWGYkQE4H1-27">
          <mxGeometry relative="1" as="geometry">
            <Array as="points">
              <mxPoint x="3090.48" y="570" />
              <mxPoint x="3090.48" y="980" />
            </Array>
          </mxGeometry>
        </mxCell>
        <mxCell id="dvUCvhy8hgOWGYkQE4H1-17" value="管理者機能一覧画面" style="rounded=0;whiteSpace=wrap;html=1;labelBackgroundColor=none;shadow=1;fillColor=#f5f5f5;strokeColor=#666666;fontColor=#333333;fontFamily=Times New Roman;" vertex="1" parent="1">
          <mxGeometry x="2883.3799999999997" y="540" width="169.79" height="60" as="geometry" />
        </mxCell>
        <mxCell id="dvUCvhy8hgOWGYkQE4H1-18" style="edgeStyle=orthogonalEdgeStyle;rounded=0;orthogonalLoop=1;jettySize=auto;html=1;" edge="1" parent="1" source="dvUCvhy8hgOWGYkQE4H1-19">
          <mxGeometry relative="1" as="geometry">
            <mxPoint x="2746.3621653896357" y="540" as="targetPoint" />
          </mxGeometry>
        </mxCell>
        <mxCell id="dvUCvhy8hgOWGYkQE4H1-19" value="" style="ellipse;whiteSpace=wrap;html=1;aspect=fixed;labelBackgroundColor=#33001A;fillColor=#000000;fontFamily=Times New Roman;strokeColor=#666666;shadow=1;" vertex="1" parent="1">
          <mxGeometry x="2729.424124043428" y="440" width="33.87608269241625" height="33.87608269241625" as="geometry" />
        </mxCell>
        <mxCell id="dvUCvhy8hgOWGYkQE4H1-20" value="&lt;span style=&quot;font-size: 48px;&quot;&gt;管理者&lt;/span&gt;" style="text;html=1;align=center;verticalAlign=middle;whiteSpace=wrap;rounded=0;" vertex="1" parent="1">
          <mxGeometry x="2720.000484018012" y="333.88" width="446.7852584468324" height="140" as="geometry" />
        </mxCell>
        <mxCell id="dvUCvhy8hgOWGYkQE4H1-21" value="プロジェクト詳細閲覧" style="rounded=0;whiteSpace=wrap;html=1;labelBackgroundColor=none;shadow=1;fillColor=#f5f5f5;strokeColor=#666666;fontColor=#333333;fontFamily=Times New Roman;" vertex="1" parent="1">
          <mxGeometry x="3412.772159571234" y="850" width="196.14962565958496" height="60" as="geometry" />
        </mxCell>
        <mxCell id="dvUCvhy8hgOWGYkQE4H1-22" style="edgeStyle=orthogonalEdgeStyle;rounded=0;orthogonalLoop=1;jettySize=auto;html=1;entryX=0;entryY=0.5;entryDx=0;entryDy=0;startArrow=classic;startFill=1;" edge="1" parent="1" source="dvUCvhy8hgOWGYkQE4H1-23" target="dvUCvhy8hgOWGYkQE4H1-17">
          <mxGeometry relative="1" as="geometry" />
        </mxCell>
        <mxCell id="dvUCvhy8hgOWGYkQE4H1-23" value="管理者ログイン画面" style="rounded=0;whiteSpace=wrap;html=1;labelBackgroundColor=none;shadow=1;fillColor=#f5f5f5;strokeColor=#666666;fontColor=#333333;fontFamily=Times New Roman;" vertex="1" parent="1">
          <mxGeometry x="2663.3799999999997" y="540" width="165.97276017349498" height="60" as="geometry" />
        </mxCell>
        <mxCell id="dvUCvhy8hgOWGYkQE4H1-24" value="お知らせ投稿" style="rounded=0;whiteSpace=wrap;html=1;labelBackgroundColor=none;shadow=1;fillColor=#f5f5f5;strokeColor=#666666;fontColor=#333333;fontFamily=Times New Roman;" vertex="1" parent="1">
          <mxGeometry x="3429.440731276071" y="1040" width="196.14962565958496" height="60" as="geometry" />
        </mxCell>
        <mxCell id="dvUCvhy8hgOWGYkQE4H1-25" style="edgeStyle=orthogonalEdgeStyle;rounded=0;orthogonalLoop=1;jettySize=auto;html=1;entryX=0;entryY=0.5;entryDx=0;entryDy=0;" edge="1" parent="1" source="dvUCvhy8hgOWGYkQE4H1-27" target="dvUCvhy8hgOWGYkQE4H1-29">
          <mxGeometry relative="1" as="geometry" />
        </mxCell>
        <mxCell id="dvUCvhy8hgOWGYkQE4H1-26" style="edgeStyle=orthogonalEdgeStyle;rounded=0;orthogonalLoop=1;jettySize=auto;html=1;entryX=0;entryY=0.5;entryDx=0;entryDy=0;" edge="1" parent="1" source="dvUCvhy8hgOWGYkQE4H1-27" target="dvUCvhy8hgOWGYkQE4H1-24">
          <mxGeometry relative="1" as="geometry" />
        </mxCell>
        <mxCell id="dvUCvhy8hgOWGYkQE4H1-27" value="お知らせ一覧" style="rounded=0;whiteSpace=wrap;html=1;labelBackgroundColor=none;shadow=1;fillColor=#f5f5f5;strokeColor=#666666;fontColor=#333333;fontFamily=Times New Roman;" vertex="1" parent="1">
          <mxGeometry x="3129.4407312760727" y="950" width="196.14962565958496" height="60" as="geometry" />
        </mxCell>
        <mxCell id="dvUCvhy8hgOWGYkQE4H1-28" value="書評印刷" style="rounded=0;whiteSpace=wrap;html=1;labelBackgroundColor=none;shadow=1;fillColor=#f5f5f5;strokeColor=#666666;fontColor=#333333;fontFamily=Times New Roman;" vertex="1" parent="1">
          <mxGeometry x="3680.48" y="640" width="196.14962565958496" height="60" as="geometry" />
        </mxCell>
        <mxCell id="dvUCvhy8hgOWGYkQE4H1-29" value="お知らせ詳細閲覧" style="rounded=0;whiteSpace=wrap;html=1;labelBackgroundColor=none;shadow=1;fillColor=#f5f5f5;strokeColor=#666666;fontColor=#333333;fontFamily=Times New Roman;" vertex="1" parent="1">
          <mxGeometry x="3429.439999999999" y="950" width="196.14962565958496" height="60" as="geometry" />
        </mxCell>
        <mxCell id="dvUCvhy8hgOWGYkQE4H1-30" style="edgeStyle=orthogonalEdgeStyle;rounded=0;orthogonalLoop=1;jettySize=auto;html=1;entryX=0;entryY=0.5;entryDx=0;entryDy=0;fillColor=#f5f5f5;strokeColor=#666666;startArrow=classic;startFill=1;" edge="1" parent="1" target="dvUCvhy8hgOWGYkQE4H1-21">
          <mxGeometry relative="1" as="geometry">
            <mxPoint x="3325.5900000000006" y="780" as="sourcePoint" />
            <mxPoint x="3412.5900000000006" y="780" as="targetPoint" />
          </mxGeometry>
        </mxCell>
        <mxCell id="dvUCvhy8hgOWGYkQE4H1-31" value="企画作成確認画面" style="rounded=0;whiteSpace=wrap;html=1;labelBackgroundColor=none;shadow=1;fillColor=#f5f5f5;strokeColor=#666666;fontColor=#333333;fontFamily=Times New Roman;" vertex="1" parent="1">
          <mxGeometry x="3680.48" y="750" width="196.14962565958496" height="60" as="geometry" />
        </mxCell>
      </root>
    </mxGraphModel>
  </diagram>
</mxfile>
